<svg width="18" height="18" viewBox="0 0 18 18" fill="none" xmlns="http://www.w3.org/2000/svg">
<path d="M9 17.7188C4.18359 17.7188 0.28125 13.8164 0.28125 9C0.28125 4.18359 4.18359 0.28125 9 0.28125C13.8164 0.28125 17.7188 4.18359 17.7188 9C17.7188 13.8164 13.8164 17.7188 9 17.7188ZM10.016 12.6703L7.36172 10.125H13.7812C14.2488 10.125 14.625 9.74883 14.625 9.28125V8.71875C14.625 8.25117 14.2488 7.875 13.7812 7.875H7.36172L10.016 5.32969C10.357 5.00273 10.3641 4.45781 10.0301 4.12383L9.64336 3.74063C9.31289 3.41016 8.77852 3.41016 8.45156 3.74063L3.78633 8.40234C3.45586 8.73281 3.45586 9.26719 3.78633 9.59414L8.45156 14.2594C8.78203 14.5898 9.31641 14.5898 9.64336 14.2594L10.0301 13.8762C10.3641 13.5422 10.357 12.9973 10.016 12.6703Z" fill="white"/>
</svg>
