<svg width="24" height="19" viewBox="0 0 24 19" fill="none" xmlns="http://www.w3.org/2000/svg">
<path d="M23.293 10.4202L15.4193 18.2939C14.7163 18.9969 13.4978 18.5048 13.4978 17.4972V12.9979H7.12382C6.50048 12.9979 5.999 12.4964 5.999 11.8731V7.37384C5.999 6.7505 6.50048 6.24903 7.12382 6.24903H13.4978V1.74977C13.4978 0.746814 14.7116 0.250021 15.4193 0.95303L23.293 8.82672C23.7289 9.26727 23.7289 9.97966 23.293 10.4202ZM8.9985 18.0596V16.1849C8.9985 15.8756 8.74542 15.6225 8.4361 15.6225H4.49925C3.6697 15.6225 2.9995 14.9523 2.9995 14.1227V5.12421C2.9995 4.29466 3.6697 3.62446 4.49925 3.62446H8.4361C8.74542 3.62446 8.9985 3.37138 8.9985 3.06205V1.18737C8.9985 0.878042 8.74542 0.624959 8.4361 0.624959H4.49925C2.01529 0.624959 0 2.64025 0 5.12421V14.1227C0 16.6067 2.01529 18.622 4.49925 18.622H8.4361C8.74542 18.622 8.9985 18.3689 8.9985 18.0596Z" fill="white"/>
</svg>
