<svg width="22" height="20" viewBox="0 0 22 20" fill="none" xmlns="http://www.w3.org/2000/svg">
<path d="M19.8172 4.5H3.4375C3.05766 4.5 2.75 4.19234 2.75 3.8125C2.75 3.43266 3.05766 3.125 3.4375 3.125H19.9375C20.3173 3.125 20.625 2.81734 20.625 2.4375C20.625 1.2984 19.7016 0.375 18.5625 0.375H2.75C1.23105 0.375 0 1.60605 0 3.125V16.875C0 18.3939 1.23105 19.625 2.75 19.625H19.8172C21.0212 19.625 22 18.6999 22 17.5625V6.5625C22 5.42512 21.0212 4.5 19.8172 4.5ZM17.875 13.4375C17.1157 13.4375 16.5 12.8218 16.5 12.0625C16.5 11.3032 17.1157 10.6875 17.875 10.6875C18.6343 10.6875 19.25 11.3032 19.25 12.0625C19.25 12.8218 18.6343 13.4375 17.875 13.4375Z" fill="white"/>
</svg>
