<svg width="25" height="26" viewBox="0 0 25 26" fill="none" xmlns="http://www.w3.org/2000/svg">
<g clip-path="url(#clip0_4_27)">
<path d="M22.54 6.10001L13.45 0.850006C13.16 0.680006 12.83 0.600006 12.5 0.600006C12.17 0.600006 11.84 0.680006 11.55 0.850006L2.46001 6.10001C1.87001 6.44001 1.51001 7.07001 1.51001 7.75001V18.25C1.51001 18.93 1.87001 19.56 2.46001 19.9L11.55 25.15C11.84 25.32 12.17 25.4 12.5 25.4C12.83 25.4 13.16 25.32 13.45 25.15L22.54 19.9C23.13 19.56 23.49 18.93 23.49 18.25V7.75001C23.49 7.07001 23.13 6.44001 22.54 6.10001ZM22.71 18.25C22.71 18.65 22.5 19.02 22.15 19.22L13.06 24.47C12.89 24.57 12.7 24.62 12.5 24.62C12.3 24.62 12.11 24.57 11.94 24.47L2.85001 19.22C2.76001 19.17 2.70001 19.08 2.63001 19L11.13 13.33C11.24 13.26 11.3 13.14 11.3 13C11.3 12.86 11.24 12.75 11.13 12.67L2.63001 7.00001C2.70001 6.93001 2.76001 6.83001 2.85001 6.78001L11.94 1.53001C12.11 1.43001 12.3 1.38001 12.5 1.38001C12.7 1.38001 12.89 1.43001 13.06 1.53001L22.15 6.78001C22.49 6.98001 22.71 7.35001 22.71 7.75001V18.25V18.25Z" fill="#25CBFF"/>
<path d="M5.31998 19.71C5.23998 19.71 5.16998 19.69 5.09998 19.66C4.93998 19.59 4.84998 19.44 4.84998 19.28V6.70999C4.84998 6.54999 4.94998 6.40999 5.09998 6.32999C5.24998 6.25999 5.43998 6.25999 5.58998 6.34999L16.14 12.64C16.27 12.72 16.35 12.85 16.35 12.99C16.35 13.13 16.27 13.27 16.14 13.34L5.58998 19.63C5.50998 19.68 5.41998 19.7 5.32998 19.7L5.31998 19.71ZM5.79998 7.49999V18.48L15.01 12.99L5.78998 7.50999L5.79998 7.49999Z" fill="#25CBFF"/>
</g>
<defs>
<clipPath id="clip0_4_27">
<rect width="25" height="25" fill="white" transform="translate(0 0.5)"/>
</clipPath>
</defs>
</svg>
